<svg width="45" height="44" viewBox="0 0 45 44" fill="none" xmlns="http://www.w3.org/2000/svg">
<path d="M4.12109 16H40.1211L36.5211 39H7.72109L4.12109 16Z" stroke="#212121" stroke-width="1.5"/>
<path d="M22.1211 6V16" stroke="#212121" stroke-width="1.5"/>
<path d="M22.6205 21.836C23.2365 21.836 23.7499 21.99 24.1605 22.298C24.5805 22.5967 24.9165 22.9933 25.1685 23.488C25.4205 23.9733 25.5979 24.5287 25.7005 25.154C25.8125 25.7793 25.8685 26.414 25.8685 27.058C25.8685 27.702 25.8125 28.3367 25.7005 28.962C25.5979 29.578 25.4205 30.1333 25.1685 30.628C24.9165 31.1133 24.5805 31.5053 24.1605 31.804C23.7499 32.1027 23.2365 32.252 22.6205 32.252C21.9952 32.252 21.4725 32.1027 21.0525 31.804C20.6419 31.5053 20.3105 31.1133 20.0585 30.628C19.8065 30.1333 19.6292 29.578 19.5265 28.962C19.4239 28.3367 19.3725 27.702 19.3725 27.058C19.3725 26.414 19.4239 25.7793 19.5265 25.154C19.6292 24.5287 19.8065 23.9733 20.0585 23.488C20.3105 22.9933 20.6419 22.5967 21.0525 22.298C21.4725 21.99 21.9952 21.836 22.6205 21.836ZM22.6205 22.69C22.1819 22.69 21.8179 22.8253 21.5285 23.096C21.2392 23.3667 21.0105 23.712 20.8425 24.132C20.6745 24.552 20.5579 25.0233 20.4925 25.546C20.4272 26.0593 20.3945 26.5633 20.3945 27.058C20.3945 27.5527 20.4272 28.0567 20.4925 28.57C20.5579 29.0833 20.6745 29.55 20.8425 29.97C21.0105 30.3807 21.2392 30.7213 21.5285 30.992C21.8179 31.2533 22.1819 31.384 22.6205 31.384C23.0499 31.384 23.4092 31.2533 23.6985 30.992C23.9879 30.7213 24.2165 30.3807 24.3845 29.97C24.5525 29.55 24.6692 29.0833 24.7345 28.57C24.8092 28.0567 24.8465 27.5527 24.8465 27.058C24.8465 26.5633 24.8092 26.0593 24.7345 25.546C24.6692 25.0233 24.5525 24.552 24.3845 24.132C24.2165 23.712 23.9879 23.3667 23.6985 23.096C23.4092 22.8253 23.0499 22.69 22.6205 22.69Z" fill="#212121"/>
</svg>
